<svg width="571" height="515" viewBox="0 0 571 515" fill="none" xmlns="http://www.w3.org/2000/svg">
<g filter="url(#filter0_f_97_30)">
<path d="M18.1685 294.03C26.7162 309.442 37.223 324.259 49.7124 338.165C137.424 435.828 289.672 451.612 389.769 373.419C489.865 295.226 499.904 152.667 412.193 55.004C399.703 41.0976 385.905 28.852 371.135 18.3009C422.617 111.123 403.01 225.522 317.167 292.581C231.324 359.64 107.124 357.579 18.1685 294.03Z" fill="#D0D0D0"/>
</g>
<mask id="path-2-inside-1_97_30" fill="white">
<path d="M14.0413 290.119C20.6573 300.032 28.1101 309.652 36.4074 318.891C125.427 418.009 277.788 435.713 376.715 358.433C475.642 281.154 483.674 138.155 394.655 39.0362C386.358 29.7976 377.509 21.2667 368.206 13.4537C432.571 109.888 417.605 234.003 327.899 304.079C238.193 374.156 104.551 366.129 14.0413 290.119Z"/>
</mask>
<path d="M14.0413 290.119C20.6573 300.032 28.1101 309.652 36.4074 318.891C125.427 418.009 277.788 435.713 376.715 358.433C475.642 281.154 483.674 138.155 394.655 39.0362C386.358 29.7976 377.509 21.2667 368.206 13.4537C432.571 109.888 417.605 234.003 327.899 304.079C238.193 374.156 104.551 366.129 14.0413 290.119Z" fill="white"/>
<path d="M14.0413 290.119L13.1665 290.623L14.7267 289.404L14.0413 290.119ZM36.4074 318.891L35.6193 319.507L35.6193 319.507L36.4074 318.891ZM376.715 358.433L377.383 359.177L377.383 359.177L376.715 358.433ZM394.655 39.0362L395.443 38.4206L395.443 38.4206L394.655 39.0362ZM368.206 13.4537L367.331 13.9577L368.892 12.7389L368.206 13.4537ZM327.899 304.079L328.567 304.823L328.567 304.823L327.899 304.079ZM14.0413 290.119L14.9161 289.615C21.5061 299.489 28.9299 309.072 37.1954 318.275L36.4074 318.891L35.6193 319.507C27.2902 310.233 19.8085 300.574 13.1665 290.623L14.0413 290.119ZM36.4074 318.891L37.1954 318.275C125.884 417.025 277.599 434.595 376.047 357.689L376.715 358.433L377.383 359.177C277.978 436.831 124.97 418.994 35.6193 319.507L36.4074 318.891ZM376.715 358.433L376.047 357.689C474.495 280.784 482.555 138.402 393.867 39.6518L394.655 39.0362L395.443 38.4206C484.793 137.908 476.789 281.524 377.383 359.177L376.715 358.433ZM394.655 39.0362L393.867 39.6518C385.601 30.4486 376.787 21.9508 367.521 14.1685L368.206 13.4537L368.892 12.7389C378.231 20.5826 387.114 29.1466 395.443 38.4206L394.655 39.0362ZM368.206 13.4537L369.081 12.9497C433.69 109.75 418.706 234.409 328.567 304.823L327.899 304.079L327.231 303.335C416.505 233.596 431.452 110.025 367.331 13.9577L368.206 13.4537ZM327.899 304.079L328.567 304.823C238.429 375.237 104.209 367.133 13.3559 290.834L14.0413 290.119L14.7267 289.404C104.892 365.126 237.957 373.074 327.231 303.335L327.899 304.079Z" fill="white" style="mix-blend-mode:lighten" mask="url(#path-2-inside-1_97_30)"/>
<defs>
<filter id="filter0_f_97_30" x="0.168518" y="0.300781" width="489.766" height="440.821" filterUnits="userSpaceOnUse" color-interpolation-filters="sRGB">
<feFlood flood-opacity="0" result="BackgroundImageFix"/>
<feBlend mode="normal" in="SourceGraphic" in2="BackgroundImageFix" result="shape"/>
<feGaussianBlur stdDeviation="9" result="effect1_foregroundBlur_97_30"/>
</filter>
</defs>
</svg>
